<svg width="22" height="18" viewBox="0 0 22 18" fill="none" xmlns="http://www.w3.org/2000/svg">
<path d="M3.49979 10.1793V12.9893C3.49979 13.7193 3.89979 14.3993 4.53979 14.7493L9.53979 17.4793C10.1398 17.8093 10.8598 17.8093 11.4598 17.4793L16.4598 14.7493C17.0998 14.3993 17.4998 13.7193 17.4998 12.9893V10.1793L11.4598 13.4793C10.8598 13.8093 10.1398 13.8093 9.53979 13.4793L3.49979 10.1793ZM9.53979 0.519297L1.10979 5.1193C0.419785 5.4993 0.419785 6.4993 1.10979 6.8793L9.53979 11.4793C10.1398 11.8093 10.8598 11.8093 11.4598 11.4793L19.4998 7.0893V12.9993C19.4998 13.5493 19.9498 13.9993 20.4998 13.9993C21.0498 13.9993 21.4998 13.5493 21.4998 12.9993V6.5893C21.4998 6.2193 21.2998 5.8893 20.9798 5.7093L11.4598 0.519297C10.8598 0.199297 10.1398 0.199297 9.53979 0.519297Z" fill="#367D39"/>
</svg>
